<svg width="13" height="7" viewBox="0 0 13 7" fill="none" xmlns="http://www.w3.org/2000/svg">
<path fill-rule="evenodd" clip-rule="evenodd" d="M1 0C0.447715 0 0 0.447715 0 1V6C0 6.55228 0.447715 7 1 7H12C12.5523 7 13 6.55228 13 6V1C13 0.447715 12.5523 0 12 0H1ZM1 1.5V5.75C1 5.88807 1.11193 6 1.25 6H1.75C1.88807 6 2 5.88807 2 5.75V2.25C2 2.11193 2.11193 2 2.25 2H2.75C2.88807 2 3 2.11193 3 2.25V5.75C3 5.88807 3.11193 6 3.25 6H3.75C3.88807 6 4 5.88807 4 5.75V2.25C4 2.11193 4.11193 2 4.25 2H4.75C4.88807 2 5 2.11193 5 2.25V5.75C5 5.88807 5.11193 6 5.25 6H5.75C5.88807 6 6 5.88807 6 5.75V1.5C6 1.22386 5.77614 1 5.5 1H1.5C1.22386 1 1 1.22386 1 1.5ZM7.75 1H7.25C7.11193 1 7 1.11193 7 1.25V5C7 5.55228 7.44772 6 8 6H9C9.55228 6 10 5.55228 10 5V1.25C10 1.11193 9.88807 1 9.75 1H9.25C9.11193 1 9 1.11193 9 1.25V4.75C9 4.88807 8.88807 5 8.75 5H8.25C8.11193 5 8 4.88807 8 4.75V1.25C8 1.11193 7.88807 1 7.75 1ZM11.25 1C11.1119 1 11 1.11193 11 1.25V5.75C11 5.88807 11.1119 6 11.25 6H11.75C11.8881 6 12 5.88807 12 5.75V1.25C12 1.11193 11.8881 1 11.75 1H11.25Z" fill="#4834D4"/>
</svg>
